# xmcd CD database file
#
# Track frame offsets:
#	150
#	23264
#	44149
#	64573
#	88230
#	109546
#	132396
#	152752
#	172827
#	195492
#	217464
#	236607
#	260904
#
# Disc length: 3748 seconds
#
# Revision: 6
# Processed by: cddbd v1.5.1PL0 Copyright (c) Steve Scherf et al.
# Submitted via: CDex 1.51
#
DISCID=b70ea20d
DTITLE=Alejandro Sanz - MTV Unplugged
DYEAR=2001
DGENRE=Latin Pop
TTITLE0=Cuando nadie me ve
TTITLE1=Y sólo se me ocurre amarte
TTITLE2=Amiga mía
TTITLE3=Se le apago la luz
TTITLE4=Quisiera ser
TTITLE5=Aprendiz
TTITLE6=Quiero morir en tu veneno
TTITLE7=Como te echo de menos
TTITLE8=Corazón partío
TTITLE9=Siempre es de noche
TTITLE10=Toca para mi
TTITLE11=Lo que fui es lo que soy
TTITLE12=Todo es de color
EXTD=YEAR: 2001
EXTT0=
EXTT1=
EXTT2=
EXTT3=
EXTT4=
EXTT5=
EXTT6=
EXTT7=
EXTT8=
EXTT9=
EXTT10=
EXTT11=
EXTT12=
PLAYORDER=
